<svg width="40" height="40" viewBox="0 0 40 40" fill="none" xmlns="http://www.w3.org/2000/svg">
<path d="M19.983 2.58789C21.0044 2.58789 22.0041 2.73622 22.7574 3.01758V3.01855L31.0748 6.13574H31.0758C33.2953 6.96251 35.0504 9.5081 35.0504 11.8672V24.25C35.0504 25.3372 34.7062 26.5899 34.1237 27.749C33.5777 28.8353 32.8403 29.8029 32.0309 30.4561L31.8678 30.583L24.7008 35.9326L24.6949 35.9375C23.4122 36.9266 21.7236 37.4336 19.9996 37.4336C18.2769 37.4335 16.5846 36.9268 15.2643 35.9482H15.2633L8.09924 30.5996C7.22654 29.9489 6.4252 28.9213 5.84241 27.7598C5.25956 26.5981 4.91663 25.3452 4.91663 24.2666V11.8672C4.91663 9.58173 6.5633 7.12088 8.6842 6.21777L8.89124 6.13574H8.89221L17.2086 3.01855C17.962 2.73704 18.9614 2.58792 19.983 2.58789ZM20.0006 4.08594C19.3018 4.08785 18.5814 4.17065 17.9879 4.34961L17.7418 4.43164L17.7408 4.43262L9.42444 7.54883H9.42346C8.59596 7.86042 7.85473 8.52294 7.32385 9.29102C6.79277 10.0594 6.43323 10.9903 6.43323 11.8838V24.2666C6.43323 25.1611 6.74381 26.1898 7.20081 27.1016C7.60051 27.8991 8.13712 28.6566 8.73889 29.1875L9.00061 29.4014L16.1676 34.751C17.2294 35.5449 18.628 35.9257 20.0016 35.9258C21.2897 35.9258 22.6029 35.5906 23.6432 34.8955L23.8473 34.752L23.8492 34.751L31.0153 29.4014L31.0162 29.4004C31.731 28.8643 32.3666 28.0054 32.8219 27.0947C33.2772 26.1841 33.5836 25.16 33.5836 24.2666V11.8672C33.5836 10.9811 33.2232 10.0543 32.693 9.28711C32.1957 8.56767 31.5141 7.93835 30.7516 7.59863L30.5973 7.53418L30.5924 7.53223L22.275 4.41504L22.2662 4.41211L22.0182 4.33301C21.4213 4.16246 20.7 4.08403 20.0006 4.08594Z" fill="#FAFAFA" stroke="#FAFAFA"/>
<path d="M24.4039 14.7695C24.674 14.4998 25.1154 14.4827 25.4069 14.7188L25.4635 14.7695C25.7336 15.0397 25.75 15.4819 25.5133 15.7734L25.4635 15.8291L18.2965 22.9961C18.1452 23.1474 17.9574 23.2158 17.7662 23.2158C17.5991 23.2157 17.4352 23.1632 17.2955 23.0488L17.2369 22.9961L14.5533 20.3125C14.2836 20.0425 14.2666 19.601 14.5026 19.3096L14.5533 19.2529C14.8234 18.9829 15.2657 18.9658 15.5573 19.2021L15.6129 19.2529L17.7662 21.4062L18.1207 21.0527L24.4039 14.7695Z" fill="#FAFAFA" stroke="#FAFAFA"/>
</svg>
